<?xml version="1.0" encoding="UTF-8" standalone="no"?>
<!DOCTYPE svg PUBLIC "-//W3C//DTD SVG 1.1//EN" "http://www.w3.org/Graphics/SVG/1.1/DTD/svg11.dtd">
<svg width="100%" height="100%" viewBox="0 0 1920 1087" version="1.1" xmlns="http://www.w3.org/2000/svg" xmlns:xlink="http://www.w3.org/1999/xlink" xml:space="preserve" xmlns:serif="http://www.serif.com/" style="fill-rule:evenodd;clip-rule:evenodd;stroke-linecap:round;stroke-linejoin:round;stroke-miterlimit:1.5;">
    <g transform="matrix(1,0,0,1,-4125,0)">
        <g id="landscape" transform="matrix(1,0,0,0.566146,4125,0)">
            <rect x="0" y="0" width="1920" height="1920" style="fill:none;"/>
            <g transform="matrix(0.403788,0,0,0.713223,-90.6558,287.939)">
                <g id="Layer1" transform="matrix(1,0,0,1,-14.2945,3.20127)">
                    <g transform="matrix(1.2738,0,0,1.2738,364.194,-323.808)">
                        <path d="M368.784,534.13C368.784,534.13 447.078,528.305 488.198,508.735C529.318,489.165 537.665,460.255 566.887,445.842C596.109,431.43 811.923,314.933 812.692,312.334C813.462,309.735 864.089,378.822 864.089,378.822L863.548,453.58L876.383,464.927L881.252,486.488L885.766,506.328L899.404,503.25C899.404,503.25 926.067,656.374 893.154,827.005C860.242,997.636 785.672,1433.79 759.155,1504.32C732.639,1574.85 723.206,1666.89 702.412,1670.51C681.617,1674.13 365.061,1576.35 365.061,1576.35L285.479,1489.39L214.214,1348.73C214.214,1348.73 183.432,1213.89 196.375,1136.5C209.317,1059.11 244.172,935.171 269.882,851.761C295.592,768.351 336.704,587.993 336.704,587.993L368.784,534.13Z" style="fill:rgb(168,105,67);stroke:rgb(87,77,68);stroke-width:32.4px;"/>
                        <path d="M749.053,580.421C712.588,585.111 524.562,689.285 524.562,689.285C524.562,689.285 451.132,926.99 458.496,949.406" style="fill:none;stroke:rgb(87,77,68);stroke-width:32.4px;"/>
                        <path d="M201.498,1249.18L243.662,1320.35L269.911,1291.95L313.852,1305.51C313.852,1305.51 341.901,1246.53 353.632,1238C365.362,1229.48 395.995,1263.93 416.599,1268.25C437.204,1272.58 461.07,1257.83 473.512,1264.44C485.954,1271.04 533.485,1370.71 559.753,1401.95C586.02,1433.2 690.728,1556.51 690.728,1556.51" style="fill:none;stroke:rgb(87,77,68);stroke-width:32.4px;"/>
                        <path d="M737.317,949.084C735.066,967.509 712.618,1086.68 712.795,1095.18C712.971,1103.67 707.982,1125.41 714.844,1136.63C721.706,1147.87 728.256,1166 731.661,1181.85C735.066,1197.71 719.285,1206.27 728.46,1218.69C737.635,1231.11 763.135,1244.1 766.057,1259.95C768.979,1275.81 758.052,1335.69 766.599,1343.77C775.145,1351.86 789.953,1359.94 789.953,1359.94" style="fill:none;stroke:rgb(87,77,68);stroke-width:32.4px;"/>
                    </g>
                    <g transform="matrix(1.2738,0,0,1.2738,2386.27,-279.688)">
                        <path d="M1255.77,242.755C1217.64,265.094 1095.81,384.242 1082.15,439.422C1068.49,494.601 1076.11,523.948 1076.11,523.948L1069.25,551.02L1079.98,586.414C1079.98,586.414 1073.55,632.402 1077.71,655.426C1081.88,678.45 1087.81,687.265 1089.41,708.426C1091.01,729.586 1088.03,771.164 1094.09,785.684C1100.14,800.204 1117.27,796.672 1112.97,815.179C1108.67,833.686 1091,838.644 1097.4,854.124C1103.8,869.604 1131.06,891.723 1135.06,921.681C1139.07,951.64 1130.59,974.423 1112.4,1002.77C1094.2,1031.12 1089.35,1058.04 1092.1,1102.9C1094.84,1147.77 1111.4,1424.74 1153.83,1520.51C1196.25,1616.28 1222.6,1682.62 1245.32,1698.7C1268.03,1714.78 1358.83,1690.47 1384.45,1667.88C1410.07,1645.29 1415.83,1613.46 1415.83,1613.46C1415.83,1613.46 1448.4,1578.8 1477.35,1574.63C1506.29,1570.46 1510.49,1539.58 1527.86,1522.94C1545.23,1506.31 1599.09,1435.26 1599.09,1435.26L1633.29,1406.36L1691.58,1271.57C1691.58,1271.57 1756.37,1118.03 1755.38,1060.57C1754.38,1003.12 1724.67,936.537 1717.68,919.344C1710.7,902.151 1733.82,878.101 1726.28,834.46C1718.74,790.819 1695.99,511.724 1678.85,489.814C1661.71,467.903 1634.28,336.929 1634.28,336.929L1562.57,244.939L1468.48,209.698C1468.48,209.698 1293.89,220.415 1255.77,242.755Z" style="fill:rgb(168,105,67);stroke:rgb(87,77,68);stroke-width:32.4px;"/>
                        <path d="M1131.59,533.708C1122.41,548.304 1080.01,585.957 1080.01,585.957" style="fill:none;stroke:rgb(87,77,68);stroke-width:32.4px;"/>
                        <path d="M1143.08,664.16L1173.29,683.215" style="fill:none;stroke:rgb(87,77,68);stroke-width:32.4px;"/>
                        <path d="M1280.74,581.938C1285.66,618.08 1281.15,712.397 1261.02,759.042C1240.9,805.687 1181.69,944.484 1134.28,965.597" style="fill:none;stroke:rgb(87,77,68);stroke-width:32.4px;"/>
                        <path d="M1108.73,1241.59C1135.09,1225.3 1166.2,1195.96 1190.43,1180.79C1214.65,1165.63 1294.21,1139.25 1315.96,1153.06C1337.72,1166.87 1331.03,1181.98 1342.14,1203.64C1353.26,1225.3 1364.88,1248.1 1364.88,1248.1" style="fill:none;stroke:rgb(87,77,68);stroke-width:32.4px;"/>
                        <path d="M1623.65,934.831C1607.31,955.853 1614.06,1022.25 1639.99,1048.78C1665.92,1075.31 1666.88,1114.89 1663.89,1138.36C1660.9,1161.84 1648.12,1225.13 1648.12,1225.13" style="fill:none;stroke:rgb(87,77,68);stroke-width:32.4px;"/>
                        <path d="M1177.74,1558.4L1198.53,1551.52L1203.61,1540.1L1214.23,1553.52C1214.23,1553.52 1222.07,1549.93 1230.6,1553.93C1239.12,1557.93 1230.7,1563.6 1240.46,1567.24C1250.22,1570.88 1269.68,1569.1 1286.05,1578.31C1302.41,1587.53 1325.57,1598.39 1333,1597.79C1340.43,1597.19 1348.42,1585.84 1356.14,1585.65C1363.86,1585.47 1368.6,1597.61 1374.96,1594.11C1381.33,1590.61 1401.49,1572.67 1401.49,1572.67L1419.65,1566.04L1437.93,1557.8C1437.93,1557.8 1467.59,1553.43 1487.64,1533.32C1507.68,1513.21 1515.99,1483.06 1529.16,1483.38" style="fill:none;stroke:rgb(87,77,68);stroke-width:32.4px;"/>
                    </g>
                </g>
                <g id="Layer2">
                </g>
            </g>
            <g transform="matrix(4.08502,0,0,4.97513,-11786.9,-3974.84)">
                <path d="M3038.02,923.117C3039,923.021 3039.74,923.523 3040.25,924.623C3040.75,925.723 3041.04,927.004 3041.11,928.465C3041.14,929.196 3041.12,929.834 3041.05,930.38C3040.97,930.926 3040.79,931.445 3040.51,931.938C3040.23,932.43 3039.85,932.908 3039.36,933.372C3038.88,933.836 3038.25,934.351 3037.46,934.918C3035.64,936.272 3034.22,937.818 3033.23,939.556C3032.23,941.294 3031.77,942.967 3031.84,944.574C3031.89,945.597 3032.17,946.548 3032.68,947.428C3033.2,948.307 3033.97,949.05 3035.01,949.657C3036.05,950.264 3037.38,950.697 3039,950.953C3040.61,951.21 3042.55,951.228 3044.8,951.006C3047.11,950.778 3049.3,950.159 3051.34,949.151C3053.39,948.142 3055.15,946.829 3056.65,945.214C3058.14,943.599 3059.3,941.747 3060.13,939.659C3060.96,937.57 3061.32,935.357 3061.22,933.019C3061.13,931.265 3060.54,929.488 3059.45,927.687C3058.35,925.886 3056.66,924.07 3054.38,922.239C3050.35,918.966 3047.28,916.308 3045.18,914.263C3043.07,912.219 3041.77,910.928 3041.28,910.39C3038.61,907.423 3036.58,904.515 3035.2,901.665C3033.82,898.816 3033.05,895.784 3032.9,892.569C3032.76,889.597 3033.12,886.65 3033.98,883.726C3034.84,880.803 3036.05,878.017 3037.61,875.367C3039.17,872.717 3041.01,870.224 3043.11,867.888C3045.21,865.552 3047.42,863.511 3049.75,861.764C3052.09,860.018 3054.45,858.598 3056.84,857.506C3059.24,856.413 3061.53,855.759 3063.71,855.544C3065.36,855.382 3066.89,855.501 3068.31,855.899C3069.73,856.298 3070.99,857.018 3072.08,858.06C3073.18,859.103 3074.06,860.496 3074.73,862.241C3075.4,863.985 3075.8,866.124 3075.92,868.657C3076.09,872.311 3075.53,875.865 3074.24,879.32C3072.95,882.775 3070.89,886.085 3068.07,889.251C3066.83,890.695 3065.65,891.472 3064.54,891.581C3063.4,891.694 3062.46,891.186 3061.73,890.059C3061.01,888.931 3060.61,887.564 3060.53,885.956C3060.47,884.592 3060.68,883.201 3061.17,881.782C3061.66,880.364 3062.5,879.106 3063.7,878.009C3064.64,877.183 3065.46,876.111 3066.16,874.794C3066.85,873.477 3067.18,872.235 3067.12,871.065C3067.07,869.945 3066.77,869.24 3066.24,868.95C3065.7,868.66 3065.06,868.552 3064.32,868.625C3062.91,868.764 3061.39,869.171 3059.75,869.846C3058.11,870.521 3056.48,871.379 3054.86,872.42C3053.24,873.461 3051.67,874.667 3050.17,876.039C3048.66,877.41 3047.35,878.861 3046.22,880.391C3045.1,881.922 3044.21,883.514 3043.56,885.168C3042.91,886.823 3042.62,888.429 3042.7,889.988C3042.75,891.06 3042.95,892.044 3043.29,892.94C3043.64,893.836 3044.13,894.717 3044.76,895.585C3045.39,896.453 3046.15,897.345 3047.03,898.26C3047.92,899.176 3048.95,900.164 3050.11,901.224L3062.49,912.705C3064.08,914.164 3065.5,915.602 3066.77,917.019C3068.03,918.436 3069.1,919.872 3069.98,921.327C3070.86,922.782 3071.55,924.268 3072.06,925.784C3072.57,927.3 3072.87,928.934 3072.95,930.688C3073.13,934.585 3072.61,938.466 3071.39,942.33C3070.18,946.194 3068.35,949.714 3065.92,952.89C3063.48,956.066 3060.5,958.734 3056.98,960.892C3053.45,963.05 3049.49,964.346 3045.09,964.779C3040.99,965.183 3037.48,965.051 3034.57,964.384C3031.65,963.717 3029.23,962.658 3027.3,961.208C3025.38,959.758 3023.95,958.015 3023.01,955.978C3022.07,953.942 3021.55,951.755 3021.44,949.416C3021.32,946.98 3021.64,944.466 3022.38,941.873C3023.12,939.279 3024.21,936.785 3025.67,934.391C3027.13,931.996 3028.91,929.814 3031.01,927.845C3033.11,925.876 3035.45,924.3 3038.02,923.117Z" style="fill:rgb(87,77,68);fill-rule:nonzero;"/>
                <path d="M3131.72,925.183C3132.19,924.786 3132.62,924.463 3133.02,924.213C3133.43,923.964 3133.81,923.836 3134.18,923.831C3134.92,923.821 3135.48,924.217 3135.86,925.017C3136.23,925.818 3136.43,926.804 3136.43,927.976C3136.44,929.246 3136.22,930.543 3135.78,931.867C3135.33,933.191 3134.66,934.299 3133.75,935.19C3130.17,939.145 3126.98,942.753 3124.17,946.013C3121.37,949.274 3118.72,952.081 3116.22,954.434C3113.73,956.787 3111.29,958.614 3108.91,959.916C3106.53,961.218 3103.97,961.887 3101.25,961.924C3098.69,961.958 3096.71,961.301 3095.3,959.953C3093.89,958.604 3093.18,956.734 3093.17,954.342C3093.17,954.146 3093.17,953.963 3093.16,953.792C3093.16,953.621 3093.18,953.414 3093.21,953.169C3093.34,951.703 3093.85,950.011 3094.74,948.095C3095.64,946.178 3096.72,944.186 3097.99,942.118C3099.26,940.05 3100.61,937.957 3102.04,935.837C3103.47,933.718 3104.8,931.711 3106.02,929.814C3107.23,927.918 3108.24,926.183 3109.04,924.61C3109.84,923.037 3110.23,921.762 3110.22,920.785C3110.22,920.199 3110.05,919.738 3109.71,919.4C3109.37,919.063 3108.82,918.9 3108.04,918.91C3106.7,918.928 3105.31,919.374 3103.88,920.248C3102.46,921.122 3101.05,922.288 3099.66,923.747C3098.28,925.207 3096.92,926.873 3095.61,928.746C3094.29,930.619 3093.05,932.565 3091.91,934.582C3090.76,936.6 3089.71,938.628 3088.76,940.668C3087.82,942.707 3087.01,944.585 3086.35,946.303C3086.15,946.843 3085.87,947.604 3085.51,948.585C3085.14,949.567 3084.74,950.671 3084.32,951.897C3083.89,953.124 3083.43,954.387 3082.95,955.688C3082.47,956.988 3082.03,958.215 3081.64,959.368C3081.24,960.521 3080.88,961.551 3080.57,962.459C3080.26,963.366 3080.03,963.992 3079.9,964.335C3079.73,964.777 3079.46,965.611 3079.08,966.837C3078.7,968.063 3078.27,969.497 3077.77,971.139C3077.28,972.782 3076.76,974.51 3076.21,976.324C3075.67,978.138 3075.16,979.854 3074.68,981.472C3074.2,983.09 3073.78,984.511 3073.42,985.737C3073.06,986.963 3072.83,987.796 3072.73,988.237C3072.4,989.511 3072.01,990.712 3071.57,991.841C3071.12,992.971 3070.6,993.966 3070.02,994.829C3069.44,995.691 3068.77,996.384 3068.01,996.907C3067.26,997.43 3066.41,997.697 3065.47,997.71C3064.26,997.726 3063.25,997.386 3062.46,996.689C3061.66,995.991 3061.26,994.642 3061.24,992.64C3061.24,991.663 3061.33,990.661 3061.53,989.633C3061.72,988.605 3061.97,987.588 3062.26,986.583C3062.56,985.578 3062.87,984.598 3063.18,983.641C3063.49,982.685 3063.78,981.765 3064.05,980.883C3065.83,975.976 3067.65,971.056 3069.51,966.123C3071.36,961.191 3073.14,956.308 3074.84,951.476C3076.55,946.643 3078.12,941.897 3079.57,937.239C3081.03,932.581 3082.23,928.121 3083.18,923.86C3083.44,922.977 3083.8,921.727 3084.26,920.11C3084.72,918.492 3085.25,916.898 3085.85,915.327C3086.44,913.757 3087.12,912.393 3087.87,911.235C3088.62,910.077 3089.43,909.493 3090.31,909.481C3091.65,909.463 3092.63,909.828 3093.24,910.577C3093.85,911.325 3094.16,912.432 3094.17,913.897C3094.17,914.19 3094.14,914.654 3094.08,915.29C3094.02,915.925 3093.94,916.598 3093.84,917.307C3093.74,918.016 3093.64,918.689 3093.53,919.326C3093.41,919.962 3093.31,920.427 3093.2,920.722C3094.44,919.045 3095.78,917.379 3097.21,915.723C3098.65,914.068 3100.14,912.571 3101.68,911.232C3103.22,909.893 3104.8,908.797 3106.41,907.945C3108.02,907.094 3109.63,906.657 3111.25,906.635C3112.36,906.62 3113.46,906.8 3114.56,907.176C3115.65,907.552 3116.63,908.113 3117.5,908.858C3118.36,909.603 3119.07,910.546 3119.61,911.686C3120.16,912.826 3120.43,914.153 3120.45,915.667C3120.46,917.669 3120.06,919.81 3119.25,922.092C3118.44,924.373 3117.42,926.67 3116.19,928.981C3114.96,931.293 3113.62,933.545 3112.19,935.737C3110.76,937.93 3109.41,939.925 3108.16,941.724C3106.91,943.524 3105.86,945.052 3105.01,946.308C3104.16,947.565 3103.72,948.413 3103.69,948.853C3103.69,949.439 3103.85,949.913 3104.15,950.275C3104.46,950.637 3104.96,950.813 3105.67,950.804C3106.24,950.796 3107.08,950.394 3108.19,949.598C3109.29,948.802 3110.84,947.426 3112.83,945.47C3114.82,943.515 3117.35,940.893 3120.41,937.604C3123.47,934.316 3127.24,930.175 3131.72,925.183Z" style="fill:rgb(87,77,68);fill-rule:nonzero;"/>
                <path d="M3137.03,939.599C3136.62,940.697 3136.22,941.978 3135.82,943.443C3135.42,944.908 3135.2,946.226 3135.17,947.396C3135.15,948.128 3135.23,948.72 3135.42,949.172C3135.61,949.624 3135.99,949.869 3136.56,949.906C3137.26,949.952 3138.16,949.705 3139.23,949.164C3140.31,948.623 3141.48,947.892 3142.74,946.972C3144,946.052 3145.31,944.989 3146.68,943.783C3148.05,942.577 3149.41,941.321 3150.76,940.016C3152.12,938.711 3153.41,937.403 3154.65,936.09C3155.89,934.778 3157,933.567 3157.97,932.457C3158.25,932.133 3158.58,931.91 3158.95,931.788C3159.33,931.666 3159.65,931.613 3159.92,931.631C3160.59,931.675 3161.14,932.052 3161.55,932.763C3161.97,933.475 3162.16,934.391 3162.13,935.513C3162.09,936.538 3161.82,937.669 3161.31,938.906C3160.8,940.144 3159.94,941.334 3158.73,942.477C3156.48,945.215 3154.23,947.806 3151.96,950.249C3149.7,952.692 3147.45,954.83 3145.22,956.665C3142.99,958.499 3140.79,959.932 3138.62,960.964C3136.44,961.996 3134.35,962.446 3132.33,962.315C3130.95,962.225 3129.81,961.882 3128.9,961.285C3127.99,960.688 3127.27,959.909 3126.75,958.946C3126.22,957.983 3125.86,956.859 3125.66,955.576C3125.47,954.292 3125.39,952.943 3125.44,951.529C3125.51,949.138 3125.83,946.703 3126.39,944.223C3126.96,941.742 3127.61,939.475 3128.35,937.422C3129.64,933.693 3130.95,929.991 3132.28,926.313C3133.61,922.636 3134.83,919.27 3135.93,916.213L3152.68,870.014C3153.34,868.151 3154.2,866.863 3155.25,866.149C3156.3,865.435 3157.34,865.112 3158.39,865.18C3159.43,865.248 3160.37,865.724 3161.2,866.609C3162.03,867.495 3162.42,868.864 3162.36,870.717C3162.33,871.595 3162.16,872.513 3161.85,873.47C3161.53,874.427 3161.14,875.452 3160.66,876.546C3159.75,878.784 3158.66,881.523 3157.4,884.765C3156.14,888.006 3154.78,891.535 3153.33,895.351C3151.88,899.167 3150.4,903.139 3148.87,907.268C3147.34,911.396 3145.86,915.417 3144.4,919.331C3142.95,923.244 3141.59,926.956 3140.32,930.465C3139.05,933.975 3137.95,937.02 3137.03,939.599Z" style="fill:rgb(87,77,68);fill-rule:nonzero;"/>
                <path d="M3169.95,900.032C3170.01,898.912 3170.21,897.772 3170.56,896.61C3170.9,895.449 3171.39,894.412 3172.01,893.501C3172.63,892.59 3173.39,891.865 3174.28,891.326C3175.16,890.786 3176.2,890.581 3177.37,890.71C3179.32,890.924 3180.65,891.621 3181.37,892.801C3182.08,893.981 3182.39,895.399 3182.31,897.054C3182.26,897.979 3182.08,898.988 3181.77,900.08C3181.46,901.172 3181.03,902.166 3180.47,903.06C3179.92,903.954 3179.23,904.674 3178.39,905.218C3177.55,905.763 3176.58,905.974 3175.47,905.853C3173.39,905.625 3171.95,904.99 3171.16,903.948C3170.37,902.907 3169.97,901.601 3169.95,900.032ZM3163.55,915.857C3164.19,914.557 3164.9,913.655 3165.67,913.151C3166.44,912.648 3167.21,912.439 3167.98,912.524C3169.26,912.663 3170.32,913.38 3171.18,914.675C3172.05,915.969 3172.43,917.541 3172.33,919.391C3172.27,919.826 3172.21,920.259 3172.14,920.692C3172.06,921.125 3171.93,921.551 3171.74,921.971C3171.2,923.185 3170.76,924.214 3170.41,925.057C3170.07,925.9 3169.75,926.685 3169.46,927.413C3169.16,928.14 3168.88,928.855 3168.61,929.56C3168.34,930.265 3168.01,931.11 3167.62,932.095C3167.15,933.268 3166.63,934.545 3166.05,935.927C3165.47,937.308 3164.92,938.728 3164.38,940.188C3163.85,941.647 3163.39,943.09 3162.99,944.516C3162.6,945.941 3162.37,947.263 3162.31,948.48C3162.24,949.795 3162.42,950.684 3162.85,951.147C3163.28,951.611 3163.92,951.889 3164.76,951.981C3165.7,952.084 3166.69,951.899 3167.75,951.427C3168.8,950.955 3169.88,950.314 3170.96,949.503C3172.05,948.692 3173.13,947.745 3174.2,946.663C3175.27,945.581 3176.28,944.479 3177.24,943.36C3178.19,942.24 3179.07,941.162 3179.89,940.125C3180.7,939.088 3181.38,938.159 3181.93,937.338C3182.65,936.486 3183.35,936.097 3184.02,936.171C3184.62,936.237 3185.1,936.681 3185.44,937.502C3185.79,938.324 3185.93,939.343 3185.86,940.56C3185.81,941.68 3185.55,942.852 3185.1,944.075C3184.65,945.299 3183.95,946.423 3183.02,947.447C3181.18,949.791 3179.31,952.022 3177.41,954.139C3175.51,956.257 3173.58,958.102 3171.62,959.675C3169.67,961.248 3167.72,962.467 3165.79,963.332C3163.85,964.197 3161.93,964.524 3160.01,964.314C3157.29,964.016 3155.2,962.771 3153.75,960.579C3152.29,958.387 3151.68,955.149 3151.9,950.865C3152.02,948.625 3152.35,946.458 3152.9,944.363C3153.45,942.269 3154.08,940.244 3154.78,938.29C3155.49,936.336 3156.23,934.458 3157,932.657C3157.77,930.856 3158.44,929.13 3158.99,927.477C3159.2,926.863 3159.54,925.921 3160.03,924.652C3160.52,923.384 3161.03,922.094 3161.57,920.782C3162.19,919.234 3162.85,917.593 3163.55,915.857Z" style="fill:rgb(87,77,68);fill-rule:nonzero;"/>
                <path d="M3196.93,926.316C3195.42,929.606 3193.99,932.823 3192.62,935.966C3191.26,939.108 3189.99,942.007 3188.8,944.662C3188.3,945.761 3187.81,947.043 3187.3,948.508C3186.8,949.974 3186.5,951.289 3186.41,952.453C3186.36,953.132 3186.42,953.684 3186.61,954.108C3186.8,954.531 3187.14,954.784 3187.64,954.867C3188.35,954.982 3189.26,954.824 3190.38,954.393C3191.49,953.962 3192.71,953.35 3194.03,952.558C3195.34,951.767 3196.73,950.84 3198.2,949.779C3199.68,948.718 3201.13,947.605 3202.56,946.438C3203.99,945.272 3205.36,944.096 3206.67,942.911C3207.98,941.725 3209.15,940.627 3210.18,939.616C3210.76,939.17 3211.28,938.985 3211.75,939.062C3212.32,939.155 3212.76,939.596 3213.07,940.384C3213.38,941.172 3213.49,942.124 3213.4,943.24C3213.32,944.356 3213.04,945.466 3212.58,946.57C3212.12,947.675 3211.37,948.705 3210.31,949.662C3207.91,952.168 3205.5,954.525 3203.08,956.732C3200.65,958.939 3198.27,960.845 3195.92,962.451C3193.58,964.057 3191.29,965.267 3189.06,966.081C3186.83,966.894 3184.71,967.137 3182.7,966.808C3181.36,966.589 3180.26,966.15 3179.4,965.493C3178.53,964.835 3177.86,964.012 3177.38,963.024C3176.9,962.036 3176.58,960.929 3176.44,959.702C3176.3,958.475 3176.28,957.182 3176.39,955.823C3176.58,953.397 3177.06,950.921 3177.83,948.394C3178.61,945.867 3179.42,943.618 3180.29,941.647C3181.53,938.803 3182.76,935.982 3183.97,933.184C3185.19,930.386 3186.37,927.706 3187.52,925.142L3185.36,924.788C3183.49,924.481 3182.24,923.834 3181.6,922.845C3180.97,921.857 3180.69,920.805 3180.78,919.689C3180.82,919.203 3180.97,918.627 3181.24,917.959C3181.52,917.291 3181.89,916.688 3182.35,916.15C3182.82,915.612 3183.37,915.174 3184,914.836C3184.64,914.498 3185.34,914.392 3186.11,914.518L3191.53,915.406L3204.5,886.647C3205.31,884.913 3206.24,883.726 3207.29,883.088C3208.34,882.449 3209.4,882.217 3210.47,882.392C3211.47,882.557 3212.36,883.096 3213.14,884.009C3213.91,884.923 3214.23,886.277 3214.09,888.072C3214.02,888.994 3213.81,889.905 3213.45,890.804C3213.09,891.704 3212.63,892.746 3212.06,893.931C3211.7,894.706 3211.25,895.628 3210.73,896.697C3210.2,897.766 3209.65,898.904 3209.06,900.11C3208.48,901.316 3207.87,902.581 3207.24,903.903C3206.62,905.225 3206,906.5 3205.39,907.727C3204.01,910.646 3202.56,913.724 3201.02,916.961L3217.38,919.641C3218.18,919.773 3218.91,919.954 3219.57,920.185C3220.23,920.416 3220.79,920.753 3221.24,921.197C3221.7,921.64 3222.04,922.199 3222.26,922.874C3222.47,923.548 3222.54,924.419 3222.46,925.487C3222.42,926.02 3222.32,926.544 3222.16,927.059C3222,927.573 3221.74,928.023 3221.39,928.408C3221.04,928.792 3220.58,929.085 3220,929.285C3219.43,929.486 3218.7,929.564 3217.83,929.518L3196.93,926.316Z" style="fill:rgb(87,77,68);fill-rule:nonzero;"/>
            </g>
            <g transform="matrix(4.39469,0,0,5.35227,-12694,-9483.46)">
                <path d="M3015.29,2069.97C3015.01,2069.93 3014.89,2069.66 3014.92,2069.17L3021.3,1966.53C3021.33,1966.13 3021.47,1965.95 3021.75,1965.99L3042.56,1968.62C3046.27,1969.09 3049.61,1970.84 3052.58,1973.88C3055.54,1976.91 3057.82,1980.76 3059.41,1985.43C3061,1990.1 3061.62,1995.22 3061.29,2000.8C3061.07,2004.49 3060.49,2007.75 3059.56,2010.59C3058.62,2013.44 3057.58,2015.81 3056.43,2017.73C3055.28,2019.64 3054.26,2021.04 3053.37,2021.93C3056.72,2028.38 3058.16,2035.64 3057.67,2043.71L3055.93,2074.35C3055.9,2074.85 3055.71,2075.08 3055.37,2075.03L3043.73,2073.56C3043.45,2073.53 3043.32,2073.36 3043.34,2073.06L3045.2,2042.13C3045.42,2038.54 3044.73,2035.32 3043.14,2032.46C3041.54,2029.6 3039.48,2028 3036.93,2027.68L3030.13,2026.82L3027.39,2070.74C3027.36,2071.24 3027.21,2071.47 3026.93,2071.44L3015.29,2069.97ZM3031.21,2008.89L3040.07,2010.01C3042.2,2010.28 3044.16,2009.37 3045.95,2007.29C3047.73,2005.21 3048.73,2002.52 3048.92,1999.24C3049.12,1996.05 3048.47,1993.21 3047,1990.71C3045.52,1988.22 3043.68,1986.83 3041.48,1986.55L3032.62,1985.43L3031.21,2008.89Z" style="fill:rgb(87,77,68);fill-rule:nonzero;"/>
                <path d="M3083.16,2078.02C3079.44,2077.87 3076.07,2076.35 3073.06,2073.48C3070.04,2070.6 3067.65,2066.85 3065.88,2062.23C3064.11,2057.6 3063.27,2052.54 3063.38,2047.04L3064.42,1999.52C3064.53,1994.02 3065.54,1989.06 3067.45,1984.64C3069.37,1980.21 3071.9,1976.72 3075.06,1974.14C3078.21,1971.57 3081.61,1970.36 3085.27,1970.51C3088.99,1970.67 3092.34,1972.16 3095.32,1974.98C3098.3,1977.8 3100.66,1981.5 3102.39,1986.08C3104.13,1990.65 3104.95,1995.69 3104.84,2001.18L3104.01,2048.72C3103.9,2054.22 3102.89,2059.2 3100.98,2063.67C3099.06,2068.15 3096.54,2071.7 3093.42,2074.32C3090.3,2076.94 3086.88,2078.17 3083.16,2078.02ZM3083.51,2059.88C3085.58,2059.96 3087.41,2058.81 3089.01,2056.43C3090.61,2054.04 3091.44,2051.3 3091.5,2048.2L3092.33,2000.67C3092.4,1997.37 3091.73,1994.54 3090.33,1992.18C3088.92,1989.82 3087.12,1988.6 3084.91,1988.51C3082.78,1988.42 3080.93,1989.47 3079.37,1991.65C3077.81,1993.84 3076.99,1996.63 3076.93,2000.03L3075.99,2047.56C3075.93,2050.86 3076.63,2053.72 3078.1,2056.13C3079.57,2058.54 3081.38,2059.79 3083.51,2059.88Z" style="fill:rgb(87,77,68);fill-rule:nonzero;"/>
                <path d="M3130.34,2078C3126.55,2078.16 3123.09,2076.93 3119.97,2074.31C3116.85,2071.69 3114.35,2068.12 3112.46,2063.6C3110.58,2059.07 3109.58,2053.96 3109.47,2048.26L3108.64,2001.48C3108.53,1995.98 3109.3,1990.92 3110.97,1986.3C3112.64,1981.68 3114.98,1977.93 3117.99,1975.05C3121,1972.17 3124.4,1970.65 3128.19,1970.5C3131.98,1970.34 3135.42,1971.54 3138.51,1974.11C3141.6,1976.68 3144.08,1980.21 3145.96,1984.68C3147.85,1989.15 3148.84,1994.19 3148.95,1999.79L3149.09,2006.68C3149.1,2007.08 3148.97,2007.29 3148.69,2007.3L3137.11,2007.79C3136.84,2007.8 3136.7,2007.6 3136.69,2007.2L3136.55,2000.31C3136.48,1997.01 3135.68,1994.19 3134.16,1991.85C3132.63,1989.52 3130.76,1988.39 3128.55,1988.49C3126.07,1988.59 3124.2,1989.9 3122.94,1992.4C3121.68,1994.9 3121.08,1997.76 3121.14,2000.95L3122.08,2047.73C3122.15,2051.43 3122.95,2054.4 3124.48,2056.64C3126.01,2058.87 3127.84,2059.95 3129.98,2059.86C3132.18,2059.76 3134,2058.41 3135.43,2055.8C3136.86,2053.19 3137.55,2050.29 3137.48,2047.09L3137.35,2040.19C3137.34,2039.79 3137.47,2039.58 3137.75,2039.57L3149.43,2039.08C3149.7,2039.07 3149.85,2039.26 3149.86,2039.66L3149.99,2046.56C3150.11,2052.26 3149.3,2057.45 3147.56,2062.12C3145.83,2066.8 3143.47,2070.57 3140.49,2073.45C3137.52,2076.32 3134.13,2077.84 3130.34,2078Z" style="fill:rgb(87,77,68);fill-rule:nonzero;"/>
                <path d="M3158.54,2075.02C3158.27,2075.06 3158.12,2074.83 3158.09,2074.33L3151.88,1971.83C3151.84,1971.33 3151.97,1971.06 3152.24,1971.02L3163.78,1969.5C3164.05,1969.47 3164.2,1969.7 3164.24,1970.2L3166.45,2005.6L3180.4,1967.92C3180.58,1967.49 3180.81,1967.26 3181.08,1967.23L3192.93,1965.67C3193.2,1965.63 3193.28,1965.82 3193.17,1966.24L3177.93,2009.81L3201.77,2068.73C3201.93,2069.11 3201.77,2069.33 3201.29,2069.39L3188.72,2071.05C3188.38,2071.09 3188.16,2070.92 3188.07,2070.53L3171.41,2028.44L3168.32,2037.13L3170.55,2072.69C3170.58,2073.19 3170.46,2073.45 3170.18,2073.49L3158.54,2075.02Z" style="fill:rgb(87,77,68);fill-rule:nonzero;"/>
            </g>
        </g>
    </g>
</svg>
